<?xml version="1.0" standalone="no"?>
<!DOCTYPE svg PUBLIC "-//W3C//DTD SVG 20010904//EN"
 "http://www.w3.org/TR/2001/REC-SVG-20010904/DTD/svg10.dtd">
<svg version="1.0" xmlns="http://www.w3.org/2000/svg"
 width="170.000000pt" height="170.000000pt" viewBox="0 0 170.000000 170.000000"
 preserveAspectRatio="xMidYMid meet">
<metadata>
Created by potrace 1.14, written by Peter Selinger 2001-2017
</metadata>
<g transform="translate(0.000000,170.000000) scale(0.100000,-0.100000)"
fill="#000000" stroke="none">
<path d="M837 1476 c-93 -34 -147 -107 -147 -199 0 -48 4 -60 40 -105 22 -27
40 -54 40 -59 0 -39 112 -79 185 -67 76 12 99 35 126 119 8 22 21 52 31 67 54
80 13 194 -87 239 -47 22 -134 24 -188 5z m198 -30 c68 -37 108 -141 72 -190
-13 -18 -15 -17 -42 10 -23 23 -29 38 -29 76 -1 26 -6 52 -12 58 -8 8 -11 -4
-10 -47 1 -52 -1 -58 -20 -59 -11 -1 -36 -4 -56 -8 -33 -6 -36 -5 -41 24 -4
16 -2 42 3 56 8 19 7 25 -2 22 -17 -6 -26 -47 -17 -85 8 -38 -12 -107 -33
-111 -27 -5 -53 38 -59 97 -5 51 -6 53 -14 27 -5 -18 -4 -44 2 -65 6 -20 12
-43 14 -51 7 -26 -46 -25 -65 2 -50 72 -15 187 74 237 80 45 161 47 235 7z
m-16 -176 c108 -31 58 -152 -64 -152 -29 0 -43 -3 -39 -10 8 -13 101 -3 120
13 25 20 15 -7 -11 -31 -44 -41 -189 -38 -225 5 -10 12 -7 13 21 5 19 -6 37
-6 42 -1 5 5 -6 11 -25 15 -18 4 -44 15 -57 25 l-24 18 29 8 c50 14 88 12 113
-7 26 -19 76 -24 86 -8 4 6 -8 10 -28 10 -71 0 -90 71 -27 102 41 21 44 21 89
8z"/>
<path d="M488 1359 c-9 -5 -14 -17 -11 -27 3 -13 -7 -22 -39 -37 -58 -25 -135
-99 -165 -158 -31 -62 -38 -127 -24 -213 11 -63 53 -174 66 -174 3 0 19 7 36
15 24 13 28 19 20 34 -42 77 -62 213 -41 276 15 45 71 110 114 132 17 9 34 21
38 27 7 10 8 7 23 -39 2 -8 12 -15 21 -15 25 0 134 69 134 85 0 8 -21 26 -47
41 -27 15 -62 35 -78 45 -21 12 -35 15 -47 8z"/>
<path d="M1180 1311 c0 -38 1 -39 43 -45 50 -8 138 -47 186 -83 60 -46 91
-139 75 -222 -5 -26 -10 -30 -28 -25 -33 8 -43 -12 -51 -93 -10 -93 -2 -97
104 -44 82 41 102 67 61 78 -16 4 -19 10 -13 27 17 45 8 179 -14 228 -45 99
-138 169 -268 203 -90 23 -95 22 -95 -24z"/>
<path d="M562 868 c-7 -7 -12 -30 -12 -52 l0 -41 -20 33 c-13 21 -27 32 -43
32 -50 0 -59 -40 -27 -115 27 -64 24 -70 -6 -12 -21 40 -29 47 -54 47 -23 0
-33 -6 -40 -26 -11 -29 2 -61 47 -114 18 -22 28 -47 30 -74 2 -23 12 -53 23
-68 11 -15 20 -36 20 -47 0 -33 38 -51 107 -51 65 0 103 20 103 54 0 33 35 74
73 86 47 14 87 51 87 80 0 28 -35 60 -65 60 -14 0 -25 1 -25 3 0 1 7 20 15 42
30 83 9 155 -45 155 -39 0 -60 -35 -60 -100 0 -38 -4 -60 -11 -60 -8 0 -10 18
-5 61 6 59 -3 95 -28 111 -17 12 -51 9 -64 -4z m63 -15 c12 -12 16 -32 15 -77
-3 -87 -2 -96 14 -96 20 0 24 9 30 70 9 89 25 112 66 90 25 -13 30 -55 14
-119 -17 -65 -53 -104 -87 -95 -46 11 -127 -40 -127 -80 0 -17 4 -15 20 12 23
37 54 52 109 52 21 0 44 6 50 14 34 40 101 24 101 -24 0 -32 -21 -50 -81 -69
-22 -7 -41 -21 -48 -37 -12 -27 -65 -54 -107 -54 -47 0 -106 23 -122 48 -9 13
-17 41 -18 62 -1 27 -13 53 -43 93 -47 62 -52 100 -13 105 18 3 26 -5 41 -41
21 -49 38 -64 53 -49 7 7 3 25 -11 57 -26 58 -27 103 -4 112 24 9 50 -29 58
-88 6 -46 26 -72 41 -56 4 3 1 37 -6 75 -17 96 9 142 55 95z m-68 -125 c-3 -8
-6 -5 -6 6 -1 11 2 17 5 13 3 -3 4 -12 1 -19z m33 -302 c14 0 40 3 57 8 27 6
32 5 27 -7 -18 -47 -160 -49 -177 -2 -6 14 -1 15 31 8 20 -4 48 -7 62 -7z"/>
<path d="M1079 839 c-19 -19 -21 -29 -16 -83 3 -33 9 -71 12 -83 5 -16 2 -23
-15 -28 -29 -9 -60 -63 -60 -105 0 -35 41 -110 60 -110 5 0 11 -8 15 -18 8
-27 48 -42 111 -42 84 0 119 23 117 78 -1 6 3 12 7 12 5 0 18 15 29 34 29 46
27 93 -4 126 -25 26 -25 27 -9 66 23 55 23 128 -1 154 -33 37 -78 23 -109 -35
-12 -24 -15 -26 -16 -10 -1 61 -77 88 -121 44z m98 -19 c7 -14 13 -53 13 -87
0 -70 -13 -85 -63 -76 -33 7 -35 9 -47 72 -10 53 -1 98 23 113 23 15 61 3 74
-22z m135 13 c41 -37 5 -193 -44 -193 -39 1 -58 23 -58 69 0 67 39 141 74 141
5 0 18 -7 28 -17z m-98 -189 c15 -6 15 -8 -1 -19 -14 -10 -19 -10 -30 1 -7 7
-13 15 -13 18 0 8 24 8 44 0z m-50 -23 c10 -11 15 -25 10 -32 -4 -7 -7 -27 -6
-46 l1 -33 -35 36 c-42 42 -60 37 -20 -5 37 -39 32 -67 -12 -64 -27 1 -31 -1
-21 -13 18 -22 44 -16 73 17 20 23 31 28 39 20 15 -15 69 -14 92 3 16 12 13
13 -33 8 -48 -4 -52 -3 -63 21 -21 45 30 97 94 97 29 0 67 -38 67 -67 0 -50
-53 -113 -95 -113 -8 0 -15 -5 -15 -11 0 -7 10 -9 25 -5 39 10 32 -22 -10 -40
-43 -18 -101 -17 -140 1 l-30 14 43 -6 c28 -4 42 -2 42 6 0 6 -15 11 -32 11
-106 0 -165 140 -85 202 30 24 89 23 111 -1z"/>
<path d="M627 344 c-4 -4 -7 -49 -7 -101 0 -79 3 -95 17 -100 9 -4 19 -1 21 5
6 18 20 14 60 -17 55 -43 130 -64 215 -59 86 4 151 33 218 95 45 42 106 120
98 126 -2 2 -17 11 -32 21 -28 17 -29 17 -45 -6 -17 -25 -84 -92 -120 -120
-37 -29 -118 -51 -163 -44 -51 8 -139 54 -139 72 0 8 5 14 10 14 6 0 10 9 10
20 0 28 -126 110 -143 94z"/>
</g>
</svg>
